<?xml version="1.0" standalone="no"?>
<!DOCTYPE svg PUBLIC "-//W3C//DTD SVG 20010904//EN"
 "http://www.w3.org/TR/2001/REC-SVG-20010904/DTD/svg10.dtd">
<svg version="1.0" xmlns="http://www.w3.org/2000/svg"
 width="256.000000pt" height="256.000000pt" viewBox="0 0 256.000000 256.000000"
 preserveAspectRatio="xMidYMid meet">

<g transform="translate(0.000000,256.000000) scale(0.100000,-0.100000)"
fill="#000000" stroke="none">
<path d="M0 1280 l0 -1280 1280 0 1280 0 0 1280 0 1280 -1280 0 -1280 0 0
-1280z m797 732 c179 -93 223 -304 97 -469 -31 -41 -54 -42 -99 -2 -42 37 -43
51 -7 103 22 32 27 50 27 97 0 87 -53 147 -138 156 -100 12 -173 -48 -171
-141 1 -76 30 -122 183 -284 76 -81 164 -177 196 -214 31 -37 61 -66 65 -63 4
3 13 25 19 50 6 24 19 49 29 54 25 14 110 -6 122 -28 9 -18 -14 -108 -51 -197
-11 -29 -9 -38 40 -135 57 -115 73 -175 50 -190 -16 -10 -80 -12 -104 -3 -9 4
-32 41 -51 82 l-34 75 -53 -51 c-94 -88 -206 -129 -326 -119 -173 15 -284 130
-298 309 -10 133 39 251 150 357 l55 53 -49 63 c-63 80 -90 143 -97 221 -11
137 69 250 208 295 49 16 192 4 237 -19z m1441 -534 c16 -16 15 -93 -2 -107
-9 -8 -133 -10 -437 -9 l-424 3 -3 49 c-2 27 -1 55 2 62 7 19 845 21 864 2z
m0 -430 c14 -14 16 -87 2 -108 -8 -13 -67 -15 -413 -18 -254 -2 -414 1 -431 7
-24 10 -26 15 -26 64 0 30 3 57 7 60 3 4 196 7 428 7 314 0 424 -3 433 -12z"/>
<path d="M550 1304 c-54 -51 -96 -126 -106 -190 -9 -58 12 -148 44 -185 83
-100 268 -68 362 63 l30 41 -30 40 c-32 43 -240 277 -247 277 -2 0 -26 -21
-53 -46z"/>
</g>
</svg>
