<?xml version="1.0" encoding="UTF-8"?><svg id="a" xmlns="http://www.w3.org/2000/svg" xmlns:xlink="http://www.w3.org/1999/xlink" viewBox="0 0 900 900"><defs><style>.c{fill:#221f22;}.d{fill:#231f20;font-family:mononoki-Regular, mononoki;font-size:700px;}.e{fill:url(#b);}.f{fill:#403e41;}.g{fill:#2d2a2e;}</style><linearGradient id="b" x1="92.55" y1="418.16" x2="808.27" y2="418.16" gradientTransform="matrix(1, 0, 0, 1, 0, 0)" gradientUnits="userSpaceOnUse"><stop offset="0" stop-color="#d3859b"/><stop offset="1" stop-color="#83a498"/></linearGradient></defs><rect class="c" width="300" height="900"/><rect class="g" x="300" width="300" height="900"/><rect class="f" x="600" width="300" height="900"/><g><text class="d" transform="translate(57 654)"><tspan x="0" y="0">&amp;=</tspan></text><g><path class="e" d="M359.83,639.64c-4.1-14.12-10.49-28.71-19.14-43.75-17.32,20.97-36.81,36.69-58.45,47.17-21.65,10.49-43.64,15.72-65.97,15.72-37.83,0-67.91-11.62-90.23-34.86-22.33-23.24-33.5-54.23-33.5-92.97,0-25.06,6.38-49.44,19.14-73.14,12.75-23.69,32.13-44.88,58.11-63.57-37.37-37.82-56.05-74.51-56.05-110.06,0-20.05,4.89-38.16,14.7-54.35,9.79-16.17,23.35-28.94,40.67-38.28,17.31-9.34,36.45-14.01,57.42-14.01s40.9,4.9,58.45,14.7c17.54,9.81,31.33,23.14,41.36,39.99,10.02,16.87,15.04,35.78,15.04,56.74,0,14.59-2.97,28.95-8.89,43.07-5.93,14.13-14.59,26.9-25.98,38.28-3.19,3.19-6.61,4.79-10.25,4.79-4.56,0-8.89-2.05-12.99-6.15l-13.67-13.67c-4.1-4.1-6.15-8.43-6.15-12.99,0-3.64,1.59-7.06,4.79-10.25,11.85-11.85,17.77-25.74,17.77-41.7,0-16.85-5.7-30.87-17.09-42.04-11.4-11.16-25.75-16.75-43.07-16.75-15.5,0-28.37,5.02-38.62,15.04-10.25,10.03-15.38,22.33-15.38,36.91,0,23.24,14.36,49.22,43.07,77.93,50.59,50.59,90.23,94.11,118.95,130.57,3.18-9.11,6.15-19.82,8.89-32.13,2.73-10.48,9.57-14.8,20.51-12.99l22.56,4.1c9.11,1.37,13.67,6.39,13.67,15.04,0,2.29-.24,4.1-.68,5.47-6.39,26.89-15.04,51.5-25.98,73.83,20.96,32.81,35.31,62.89,43.07,90.23,1.37,5.93,.68,10.49-2.05,13.67-2.73,3.19-7.07,4.79-12.99,4.79h-21.88c-9.12,0-15.5-4.79-19.14-14.36Zm-95.7-47.51c15.95-9.79,30.53-24.95,43.75-45.46-26.44-34.18-59.93-72.23-100.49-114.16-19.14,13.22-33.5,28.49-43.07,45.8-9.57,17.32-14.36,34.86-14.36,52.64,0,24.61,5.81,43.41,17.43,56.4s27.91,19.48,48.88,19.48c15.95,0,31.89-4.89,47.85-14.7Z"/><path class="e" d="M502.02,377.83h289.16c11.39,0,17.09,5.7,17.09,17.09v18.46c0,11.4-5.7,17.09-17.09,17.09H502.02c-11.4,0-17.09-5.69-17.09-17.09v-17.77c0-11.85,5.69-17.77,17.09-17.77Zm0,157.23h289.16c11.39,0,17.09,5.7,17.09,17.09v18.46c0,11.4-5.7,17.09-17.09,17.09H502.02c-11.4,0-17.09-5.69-17.09-17.09v-17.77c0-11.85,5.69-17.77,17.09-17.77Z"/></g></g></svg>